<?xml version="1.0" encoding="UTF-8" standalone="no"?>
<!-- Created with Inkscape (http://www.inkscape.org/) -->
<svg id="svg2" xmlns:rdf="http://www.w3.org/1999/02/22-rdf-syntax-ns#" xmlns="http://www.w3.org/2000/svg" xmlns:osb="http://www.openswatchbook.org/uri/2009/osb" height="500" width="500" version="1.1" xmlns:cc="http://creativecommons.org/ns#" viewbox="0 0 500 500" xmlns:dc="http://purl.org/dc/elements/1.1/">
 <metadata id="metadata7">
  <rdf:RDF>
   <cc:Work rdf:about="">
    <dc:format>image/svg+xml</dc:format>
    <dc:type rdf:resource="http://purl.org/dc/dcmitype/StillImage"/>
    <dc:title/>
   </cc:Work>
  </rdf:RDF>
 </metadata>
 <g id="layer1" transform="translate(0 -552.36)">
  <g id="g3851" stroke-width="0" transform="translate(-6.2)">
   <g id="g3825" transform="matrix(-1 0 0 1 504.44 0)" fill="#b70623">
    <rect id="rect3827" height="90" width="99.464" y="821.91" x="41.436"/>
    <path id="path3829" d="m8.4746 293.29-17.842-30.94 35.716 0.0186z" transform="matrix(.95921 0 .55391 1.5 -128.69 428.33)"/>
    <path id="path3831" transform="matrix(.95921 0 .55391 -1.5 -128.69 1305.5)" d="m8.4746 293.29-17.842-30.94 35.716 0.0186z"/>
   </g>
   <g id="g3804" transform="translate(8)" fill="#b70623">
    <rect id="rect3795" height="90" width="99.464" y="821.91" x="41.436"/>
    <path id="path3800" transform="matrix(.95921 0 .55391 1.5 -128.69 428.33)" d="m8.4746 293.29-17.842-30.94 35.716 0.0186z"/>
    <path id="path3802" d="m8.4746 293.29-17.842-30.94 35.716 0.0186z" transform="matrix(.95921 0 .55391 -1.5 -128.69 1305.5)"/>
   </g>
   <g id="g3775" transform="translate(6)" fill="#7a0518">
    <g id="g3785" transform="translate(2)">
     <path id="path3773" d="m118.72 339.56c-0.15319 0.0902-48.199-27.119-48.201-27.296-0.0015-0.17775 47.585-28.183 47.74-28.095 0.15467 0.0876 0.61419 55.301 0.46099 55.391z" transform="matrix(1.0016 0 0 1.0272 21.989 563.11)"/>
     <path id="path3771" d="m52.5 342-29.445-51h58.89z" transform="matrix(1.0406 0 1.1601 1.0098 -310.49 566.61)"/>
    </g>
    <g id="g3789" transform="matrix(-1 0 0 1 498.62 .000010052)">
     <path id="path3791" transform="matrix(1.0016 0 0 1.0272 21.989 563.11)" d="m118.72 339.56c-0.15319 0.0902-48.199-27.119-48.201-27.296-0.0015-0.17775 47.585-28.183 47.74-28.095 0.15467 0.0876 0.61419 55.301 0.46099 55.391z"/>
     <path id="path3793" transform="matrix(1.0406 0 1.1601 1.0098 -310.49 566.61)" d="m52.5 342-29.445-51h58.89z"/>
    </g>
   </g>
  </g>
  <g id="g3868" transform="translate(-4.2)">
   <path id="path3010-1" d="m402.86 330-148.52 85.81-148.57-85.71-0.06-171.53 148.52-85.808 148.57 85.718z" transform="matrix(.99619 0 0 1.0104 .83894 540.88)" stroke-width="0" fill="#93a7ac"/>
   <path id="path3010" stroke-linejoin="round" d="m402.86 330-148.52 85.81-148.57-85.71-0.06-171.53 148.52-85.808 148.57 85.718z" transform="matrix(.90384 0 0 .91671 24.644 563.21)" stroke="#fff" stroke-width="16.479" fill="#3b5282"/>
  </g>
  <rect id="rect3798" height="89.593" width="394.1" y="770.93" x="52.943" stroke-width="0" fill="#d40023"/>
  <g id="flowRoot3983" fill="#fff" transform="translate(-4.2 546.56)">
   <path id="path3029" d="m193.18 266.44-7.3439-23.328h-16.704v50.399h14.472v-6.2639l-2.016-16.992h1.224l7.4159 23.256h16.704v-50.399h-14.544v6.2639l2.088 17.064z"/>
   <path id="path3031" d="m212.72 293.51h31.536v-12.6h-15.84v-37.8h-15.696z"/>
   <path id="path3033" d="m266.96 243.11-3.888 24.264h-1.224v-24.264h-15.408v6.2639l5.1839 44.135h17.568l3.816-19.8h1.08l3.816 19.8h17.64l5.1119-44.135v-6.2639h-15.336v24.264h-1.296l-3.888-24.264z"/>
   <path id="path3035" d="m311.31 243.11c-1.902 0.0315-3.426 0.61654-4.5719 1.755-1.146 1.1385-1.734 2.6415-1.764 4.5089v37.872c0.03 1.8675 0.61799 3.3705 1.764 4.5089 1.146 1.1385 2.67 1.7235 4.5719 1.755h27.36v-12.6h-17.928v-25.128h15.48l2.448-6.4079v-6.2639z"/>
  </g>
  <g id="g6" fill="#fff" transform="matrix(.024452 0 0 -.024452 202.74 763.64)">
   <path id="path8" d="m757 3752c-10-10-17-23-17-29s30-40 67-75c147-140 654-693 718-783 6-10 3-31-9-65-20-55-16-80 12-80 30 0 82-61 82-98 0-44 65-202 117-284 13-21 27-64 31-97 10-73 31-106 73-115 38-7 102 8 119 29 21 26 90 17 90-12 0-8-13-47-29-86-15-40-40-109-54-154-21-67-37-97-89-161-66-81-118-187-118-242 0-82 63-185 145-236 24-16 47-34 49-41 3-6-5-31-16-55-27-55-98-266-98-290 0-23-36-24-105-2-35 10-104 16-230 18-204 4-234 11-278 70-32 41-62 46-107 19-27-15-29-15-55 5-44 35-99 46-138 27-83-39-89-153-14-271 15-25 26-62 30-102 14-131 72-202 164-202 27 0 58 6 68 14 19 14 19 15 1 69-10 31-16 63-12 72 7 20 20 18 131-23 132-48 330-113 449-147 71-20 432-31 482-15 35 12 54 45 54 95 0 52-15 80-75 141l-55 56 97 102c119 123 155 193 197 379 9 39 40 33 44-8 3-35 30-166 44-213 5-18 25-55 44-83s34-53 34-55c0-3 11-21 24-42 38-57 86-215 86-281 0-36 6-48 45-87 26-25 45-54 45-67 1-51 17-57 158-57 120 0 131 2 137 19 6 21-16 84-34 95-17 11-13 44 6 55 15 8 16 14 6 48-6 21-21 72-34 113-12 41-25 84-29 95-22 63-43 139-80 295-23 96-49 198-58 225-8 28-18 79-23 115-23 188-45 246-135 366-30 40-54 76-54 82s60 68 134 139c189 180 235 247 244 348 5 63-14 108-67 160-23 21-41 47-41 56 0 22 53 67 88 75 39 10 52 23 52 53 0 15 13 42 29 61 61 75 73 120 46 183-51 122-195 159-293 75-19-16-44-28-61-28-37 0-44-10-24-32 15-17 14-23-23-93-38-74-39-75-72-69-28 6-34 3-39-15-5-21-10-22-62-15-31 3-65 11-75 17-11 5-54 10-95 10-84 0-131-16-194-65-41-33-66-33-116 1-14 10-55 37-91 59-96 61-110 76-110 121 0 34-7 45-56 90l-56 51h-74c-42 0-83-4-93-10-12-6-23-5-33 3-9 7-98 116-199 242-168 211-329 388-404 443-160 119-186 130-218 94z" fill="#fff"/>
  </g>
 </g>
</svg>
